<svg xmlns="http://www.w3.org/2000/svg"  viewBox="0 0 50 50" width="50px" height="50px"><path fill="#99c93c" d="M43.759,24.567c-0.192-3.838-1.476-7.587-3.49-10.845c-2.042-3.304-4.722-6.203-8.6-7.192 c-1.85-0.471-3.784-0.572-5.685-0.516c-2.133,0.063-4.289,0.282-6.354,0.837c-3.362,0.903-6.41,2.813-8.736,5.398 c-5.65,6.279-6.204,15.742-1.691,22.823c0.017,0.027-1.918,4.551-2.669,6.889c-0.084,0.261,0.016,0.465,0.185,0.585 c0.156,0.222,0.445,0.369,0.759,0.231c2.544-1.116,5.179-2.004,7.867-2.693c0.448-0.115,0.918-0.083,1.352,0.074 c1.706,0.615,3.463,1.133,5.222,1.544c3.976,0.929,8.243,1.176,12.071-0.467C40.428,38.472,44.099,31.395,43.759,24.567z"/><path fill="#fff" d="M36.062,30.433c-0.037-0.223-0.145-0.438-0.245-0.637c-0.045-0.089-0.102-0.172-0.163-0.252 c-0.035-0.046-0.072-0.091-0.107-0.137c-0.07-0.234-0.202-0.465-0.426-0.676c-1.074-1.011-2.132-2.196-3.733-2.179 c-1.444,0.015-2.41,0.929-3.527,1.676c-2.029,1.357-4.224-1.338-5.423-2.7c-0.497-0.565-0.996-1.129-1.488-1.698 c-0.292-0.338-0.672-0.709-0.715-1.174c-0.05-0.541,0.254-1.126,0.427-1.62c0.228-0.651,0.411-1.287,0.476-1.979 c0.126-1.345-0.298-2.735-1.101-3.81c-0.346-0.463-0.763-0.789-1.204-0.993c-0.605-0.392-1.376-0.395-1.998,0.011 c-0.11,0.072-0.196,0.165-0.295,0.248c-0.037,0.029-0.072,0.059-0.108,0.09c-0.282,0.253-0.537,0.53-0.758,0.848 c-0.492,0.705-0.869,1.57-1.073,2.402c-0.198,0.807-0.218,1.64-0.063,2.452c0.296,2.933,2.143,5.954,4.018,8.04 c3.529,3.923,8.776,6.349,14.09,5.274c0.68-0.138,1.505-0.349,2.159-0.742c0.1-0.033,0.199-0.075,0.297-0.128 c0.303-0.166,0.525-0.409,0.711-0.694c0.092-0.14,0.147-0.309,0.207-0.463c0.015-0.038,0.027-0.077,0.036-0.117 c0.031-0.148,0.051-0.321,0.064-0.471c0.001-0.017,0.003-0.033,0.003-0.05C36.129,30.781,36.09,30.602,36.062,30.433z"/><path fill="#231f20" d="M33.239,11.699c1.01,0.839,2.056,1.695,2.776,2.809c0.785,1.215,1.378,2.576,2.037,3.861 c0.294,0.573,1.157,0.068,0.863-0.505c-0.346-0.674-0.691-1.349-1.037-2.023c-0.337-0.657-0.657-1.328-1.069-1.942 c-0.766-1.144-1.814-2.035-2.864-2.907C33.455,10.584,32.744,11.287,33.239,11.699L33.239,11.699z"/><path fill="#231f20" d="M12.047,38.652c0.85-0.481,1.712-0.938,2.59-1.367c0.416-0.203,0.924-0.573,1.402-0.434 c0.465,0.136,0.903,0.45,1.339,0.66c1.645,0.792,3.386,1.352,5.184,1.668c0.629,0.111,0.9-0.853,0.266-0.964 c-2.046-0.36-3.968-1.043-5.805-2.008c-0.375-0.197-0.774-0.396-1.208-0.401c-0.47-0.006-0.893,0.236-1.305,0.433 c-1.007,0.481-1.995,1-2.966,1.549C10.982,38.105,11.486,38.97,12.047,38.652L12.047,38.652z"/><path fill="#ff9600" d="M39.776,7.708c0.095-0.393,0.209-0.781,0.344-1.162c0.066-0.188,0.128-0.387,0.217-0.566 c-0.12,0.241,0.028-0.062,0.049-0.109c0.042-0.092,0.084-0.184,0.128-0.275c0.352-0.729,0.78-1.417,1.273-2.059 c0.147-0.191,0.161-0.551,0.101-0.771c-0.064-0.232-0.243-0.483-0.46-0.598c-0.232-0.123-0.513-0.184-0.771-0.101 c-0.265,0.086-0.43,0.241-0.598,0.46c-1.051,1.368-1.806,2.972-2.213,4.648c-0.123,0.507,0.161,1.108,0.698,1.23 C39.061,8.524,39.644,8.252,39.776,7.708L39.776,7.708z"/><path fill="#ff9600" d="M42.784,9.237c0.007-0.023,0.015-0.045,0.025-0.066c-0.034,0.08-0.067,0.159-0.101,0.239 c0.029-0.064,0.064-0.123,0.106-0.179c-0.052,0.067-0.104,0.135-0.156,0.202c0.067-0.084,0.144-0.156,0.229-0.222 c-0.067,0.052-0.135,0.104-0.202,0.156C42.981,9.144,43.327,8.98,43.65,8.8c0.37-0.206,0.74-0.412,1.111-0.617 c0.458-0.254,0.647-0.921,0.359-1.368c-0.299-0.463-0.879-0.631-1.368-0.359c-0.51,0.283-1.02,0.567-1.53,0.85 c-0.272,0.151-0.52,0.306-0.764,0.501c-0.29,0.233-0.483,0.549-0.602,0.898c-0.081,0.236-0.022,0.56,0.101,0.771 c0.121,0.207,0.359,0.405,0.598,0.46C42.11,10.062,42.602,9.768,42.784,9.237L42.784,9.237z"/><path fill="#ff9600" d="M42.21,12.967c0.427,0.079,0.842,0.203,1.244,0.369c-0.08-0.034-0.159-0.067-0.239-0.101 c0.477,0.202,0.925,0.462,1.337,0.776c-0.067-0.052-0.135-0.104-0.202-0.156c0.145,0.112,0.285,0.23,0.42,0.355 c0.385,0.354,1.039,0.409,1.414,0c0.354-0.386,0.411-1.036,0-1.414c-0.959-0.882-2.156-1.519-3.442-1.757 c-0.269-0.05-0.527-0.041-0.771,0.101c-0.207,0.121-0.405,0.359-0.46,0.598C41.399,12.227,41.659,12.865,42.21,12.967 L42.21,12.967z"/><path fill="#429ad4" d="M13.26,46.257c1.082-0.641,2.2-1.217,3.351-1.723c0.214-0.094,0.4-0.382,0.46-0.598 c0.066-0.239,0.036-0.558-0.101-0.771c-0.138-0.214-0.343-0.401-0.598-0.46c-0.279-0.063-0.511-0.014-0.771,0.101 c-1.151,0.507-2.27,1.082-3.351,1.723c-0.45,0.267-0.653,0.912-0.359,1.368C12.184,46.351,12.779,46.543,13.26,46.257 L13.26,46.257z"/><path fill="#429ad4" d="M18.469,43.863c-0.093,1.018-0.011,2.046,0.204,3.044c0.11,0.512,0.737,0.858,1.23,0.698 c0.54-0.175,0.816-0.681,0.698-1.23c-0.053-0.245-0.096-0.492-0.129-0.741c0.012,0.089,0.024,0.177,0.036,0.266 c-0.087-0.676-0.1-1.358-0.038-2.037c0.022-0.241-0.127-0.542-0.293-0.707c-0.173-0.173-0.458-0.304-0.707-0.293 c-0.259,0.012-0.527,0.097-0.707,0.293C18.573,43.361,18.494,43.585,18.469,43.863L18.469,43.863z"/><path fill="#429ad4" d="M21.906,45.703c0.846,0.62,1.749,1.157,2.697,1.604c0.248,0.117,0.497,0.176,0.771,0.101 c0.232-0.064,0.483-0.243,0.598-0.46c0.123-0.232,0.184-0.513,0.101-0.771c-0.076-0.235-0.227-0.488-0.46-0.598 c-0.949-0.446-1.852-0.983-2.697-1.604c-0.197-0.144-0.546-0.163-0.771-0.101c-0.232,0.064-0.483,0.243-0.598,0.46 c-0.123,0.232-0.184,0.513-0.101,0.771C21.531,45.367,21.685,45.54,21.906,45.703L21.906,45.703z"/></svg>